<svg width="92" height="57" viewBox="0 0 92 57" fill="none" xmlns="http://www.w3.org/2000/svg">
<rect width="91.954" height="57" rx="1.96136" fill="#1C3A13"/>
<path d="M19.8245 25.5456H21.996L22.5639 28.9532V35H20.3924V28.6358L19.8245 25.5456ZM26.0551 25.3117C26.8903 25.3117 27.5974 25.4899 28.1765 25.8462C28.7667 26.2026 29.2121 26.7148 29.5128 27.383C29.8246 28.04 29.9805 28.8362 29.9805 29.7717V35H27.809V30.1224C27.809 29.1313 27.5974 28.3852 27.1742 27.8841C26.7622 27.3719 26.1553 27.1157 25.3535 27.1157C24.7856 27.1157 24.29 27.2549 23.8668 27.5333C23.4548 27.8006 23.1319 28.1792 22.898 28.6692C22.6753 29.1592 22.5639 29.7327 22.5639 30.3897L21.7956 29.9721C21.8958 28.9921 22.1352 28.1569 22.5138 27.4665C22.9036 26.7761 23.3991 26.2471 24.0005 25.8796C24.613 25.501 25.2978 25.3117 26.0551 25.3117ZM33.4549 25.3117C34.2901 25.3117 35.0028 25.4899 35.593 25.8462C36.1832 26.2026 36.6287 26.7148 36.9293 27.383C37.2411 28.04 37.397 28.8362 37.397 29.7717V35H35.2255V30.1224C35.2255 29.1313 35.0139 28.3852 34.5908 27.8841C34.1788 27.3719 33.5718 27.1157 32.7701 27.1157C32.2021 27.1157 31.7066 27.2549 31.2834 27.5333C30.8714 27.8006 30.5484 28.1792 30.3146 28.6692C30.0919 29.1592 29.9805 29.7327 29.9805 30.3897L29.2121 29.9721C29.3123 28.9921 29.5518 28.1569 29.9304 27.4665C30.3201 26.7761 30.8157 26.2471 31.417 25.8796C32.0295 25.501 32.7088 25.3117 33.4549 25.3117ZM44.7346 35.2339C43.6322 35.2339 42.6522 35.0278 41.7948 34.6158C40.9373 34.1926 40.2636 33.608 39.7736 32.8619C39.2836 32.1158 39.0386 31.2472 39.0386 30.2561C39.0386 29.2761 39.2669 28.4186 39.7235 27.6837C40.1912 26.9376 40.8315 26.3585 41.6444 25.9465C42.4685 25.5233 43.4095 25.3117 44.4674 25.3117C45.5253 25.3117 46.4384 25.5511 47.2068 26.03C47.9863 26.4977 48.5877 27.1603 49.0109 28.0177C49.434 28.8752 49.6456 29.883 49.6456 31.0412H40.7424V29.3875H48.5599L47.4741 30.0055C47.4407 29.3819 47.2904 28.8474 47.0231 28.4019C46.767 27.9565 46.4162 27.6169 45.9707 27.383C45.5364 27.138 45.0186 27.0155 44.4173 27.0155C43.7825 27.0155 43.2257 27.1436 42.7469 27.3997C42.2792 27.6558 41.9117 28.0177 41.6444 28.4855C41.3772 28.942 41.2435 29.4877 41.2435 30.1224C41.2435 30.824 41.3994 31.4309 41.7112 31.9432C42.0342 32.4554 42.4852 32.8508 43.0643 33.1292C43.6545 33.3964 44.3505 33.5301 45.1522 33.5301C45.8761 33.5301 46.6166 33.4187 47.3739 33.196C48.1311 32.9621 48.7993 32.6392 49.3783 32.2271V33.7973C48.7993 34.2428 48.0921 34.5935 47.2569 34.8497C46.4329 35.1058 45.5921 35.2339 44.7346 35.2339Z" fill="#D3FA99"/>
<path d="M30.1202 49.7436C29.2516 49.7436 28.5111 49.5654 27.8986 49.2091C27.2972 48.8527 26.8351 48.3405 26.5121 47.6723C26.1892 47.0042 26.0277 46.208 26.0277 45.2837V40.0553H28.1992V44.9496C28.1992 45.9296 28.422 46.6757 28.8674 47.1879C29.324 47.689 29.9754 47.9396 30.8218 47.9396C31.4342 47.9396 31.9576 47.806 32.3919 47.5387C32.8374 47.2714 33.1826 46.8928 33.4276 46.4028C33.6726 45.9017 33.7951 45.3226 33.7951 44.6656L34.5467 45.0832C34.4577 46.052 34.2127 46.8872 33.8118 47.5888C33.4109 48.2792 32.8931 48.8138 32.2583 49.1924C31.6236 49.5599 30.9109 49.7436 30.1202 49.7436ZM34.3463 49.5098L33.7951 46.1022V40.0553H35.9666V46.4362L36.5178 49.5098H34.3463ZM38.3957 40.0553H40.5672V43.346L40.467 43.6801V45.5843L40.5672 46.169V52.2659H38.3957V40.0553ZM39.732 44.7825C39.9436 43.7803 40.2944 42.9117 40.7844 42.1767C41.2743 41.4306 41.8757 40.8516 42.5884 40.4395C43.3122 40.0275 44.114 39.8215 44.9938 39.8215C45.918 39.8215 46.7365 40.0331 47.4492 40.4562C48.1619 40.8683 48.7187 41.4473 49.1196 42.1934C49.5205 42.9284 49.721 43.7914 49.721 44.7825C49.721 45.7625 49.5205 46.6256 49.1196 47.3717C48.7187 48.1178 48.1619 48.7024 47.4492 49.1256C46.7365 49.5376 45.918 49.7436 44.9938 49.7436C44.114 49.7436 43.3178 49.5376 42.6051 49.1256C41.8924 48.7135 41.2855 48.1345 40.7844 47.3884C40.2944 46.6423 39.9436 45.7736 39.732 44.7825ZM47.5161 44.7825C47.5161 44.1478 47.3824 43.591 47.1152 43.1122C46.859 42.6222 46.5027 42.2435 46.0461 41.9763C45.5895 41.6979 45.0661 41.5587 44.4759 41.5587C43.8857 41.5587 43.3289 41.6979 42.8055 41.9763C42.2933 42.2435 41.8423 42.6222 41.4525 43.1122C41.0628 43.591 40.7454 44.1478 40.5004 44.7825C40.7454 45.4173 41.0628 45.9797 41.4525 46.4696C41.8423 46.9485 42.2933 47.3271 42.8055 47.6055C43.3289 47.8728 43.8857 48.0064 44.4759 48.0064C45.0661 48.0064 45.5895 47.8728 46.0461 47.6055C46.5027 47.3271 46.859 46.9485 47.1152 46.4696C47.3824 45.9797 47.5161 45.4173 47.5161 44.7825Z" fill="#D3FA99"/>
<path d="M17.7244 20.7241C16.299 20.7241 15.0462 20.4513 13.966 19.9056C12.8859 19.3599 12.0451 18.6027 11.4437 17.6339C10.8424 16.6539 10.5417 15.518 10.5417 14.2263C10.5417 12.9345 10.8424 11.8042 11.4437 10.8354C12.0451 9.85539 12.8859 9.09257 13.966 8.54691C15.0462 8.00125 16.299 7.72842 17.7244 7.72842C19.1498 7.72842 20.4026 8.00125 21.4828 8.54691C22.563 9.09257 23.4038 9.85539 24.0051 10.8354C24.6065 11.8042 24.9071 12.9345 24.9071 14.2263C24.9071 15.518 24.6065 16.6539 24.0051 17.6339C23.4038 18.6027 22.563 19.3599 21.4828 19.9056C20.4026 20.4513 19.1498 20.7241 17.7244 20.7241ZM17.7244 18.753C18.7378 18.753 19.612 18.5693 20.347 18.2018C21.0819 17.8343 21.6499 17.3109 22.0508 16.6316C22.4628 15.9523 22.6688 15.1505 22.6688 14.2263C22.6688 13.302 22.4628 12.5002 22.0508 11.8209C21.6499 11.1416 21.0819 10.6182 20.347 10.2507C19.612 9.88323 18.7378 9.69948 17.7244 9.69948C16.7222 9.69948 15.848 9.88323 15.1019 10.2507C14.3669 10.6182 13.7934 11.1416 13.3814 11.8209C12.9805 12.5002 12.7801 13.302 12.7801 14.2263C12.7801 15.1505 12.9805 15.9523 13.3814 16.6316C13.7934 17.3109 14.3669 17.8343 15.1019 18.2018C15.848 18.5693 16.7222 18.753 17.7244 18.753ZM35.6184 20.4902L35.2509 16.9824L35.6852 15.763L35.2509 14.5603L35.6184 11.0358H37.8567L37.3556 15.763L37.8567 20.4902H35.6184ZM36.2866 15.763C36.075 16.7541 35.7242 17.6227 35.2342 18.3688C34.7442 19.1149 34.1373 19.694 33.4135 20.106C32.7008 20.5181 31.9046 20.7241 31.0248 20.7241C30.1005 20.7241 29.282 20.5181 28.5693 20.106C27.8566 19.6829 27.2998 19.0982 26.8989 18.3521C26.4981 17.606 26.2976 16.743 26.2976 15.763C26.2976 14.7719 26.4981 13.9089 26.8989 13.1739C27.2998 12.4278 27.8566 11.8487 28.5693 11.4367C29.282 11.0135 30.1005 10.8019 31.0248 10.8019C31.9046 10.8019 32.7008 11.008 33.4135 11.42C34.1373 11.832 34.7442 12.4111 35.2342 13.1572C35.7353 13.8922 36.0861 14.7608 36.2866 15.763ZM28.5025 15.763C28.5025 16.3978 28.6306 16.9601 28.8867 17.4501C29.154 17.929 29.5159 18.3076 29.9725 18.586C30.429 18.8532 30.9524 18.9869 31.5426 18.9869C32.144 18.9869 32.7008 18.8532 33.213 18.586C33.7253 18.3076 34.1763 17.929 34.5661 17.4501C34.967 16.9601 35.2843 16.3978 35.5182 15.763C35.2843 15.1283 34.967 14.5715 34.5661 14.0926C34.1763 13.6026 33.7253 13.224 33.213 12.9568C32.7008 12.6784 32.144 12.5392 31.5426 12.5392C30.9524 12.5392 30.429 12.6784 29.9725 12.9568C29.5159 13.224 29.154 13.6026 28.8867 14.0926C28.6306 14.5715 28.5025 15.1283 28.5025 15.763ZM42.1181 18.6027L41.4833 18.3688L47.4967 11.0358H50.0023L41.9677 20.4902H39.9466V7.62819H42.1181V18.6027ZM44.8074 15.8131L46.3275 14.4434L50.2863 20.4902H47.7306L44.8074 15.8131Z" fill="#D3FA99"/>
<path d="M69.6954 7.35498C70.2976 7.9579 74.3351 11.892 75.1626 12.726L79.5736 17.1504C80.4689 18.1292 81.6757 19.336 82.5089 20.2899C80.9286 21.9219 79.2622 23.6459 77.56 25.3892C76.3889 24.2205 74.9923 22.7346 73.7892 21.5014C72.5951 20.2774 71.1021 18.7613 69.9172 17.5134C69.4931 17.8994 62.8271 24.5653 62.0514 25.3401C61.0457 24.3354 57.6553 20.7151 57.0071 20.0319C57.8277 19.2211 58.9609 18.0788 59.7838 17.2398C61.9215 15.0466 64.0753 12.8676 66.2429 10.7032C67.3094 9.6422 68.6311 8.36016 69.6954 7.35498Z" fill="#D3FA99"/>
<path d="M69.9457 19.3953C70.24 19.6806 72.5708 22.1235 73.1718 22.708C76.3313 25.7804 79.8366 29.3348 82.7651 32.3396C81.6755 33.3573 77.9403 36.8052 77.4266 37.2859C76.5037 36.3455 65.8152 25.5421 64.6613 24.3413C65.9876 23.0711 68.8033 20.4277 69.9457 19.3953Z" fill="#D3FA99"/>
<path d="M69.5944 31.6921C70.2392 32.2654 73.8595 35.7133 74.9593 36.7396C72.5378 39.0463 70.584 40.9977 68.2497 43.3244C66.2361 45.3316 64.3777 47.1489 62.2515 49.1601C62.2239 49.189 62.0791 49.3325 62.0274 49.3685C61.6769 49.0452 57.6877 45.2854 57.0555 44.6288C57.4716 43.8956 60.3046 41.1294 61.0505 40.3822C63.8077 37.619 66.9062 34.3916 69.5944 31.6921Z" fill="#D3FA99"/>
<path d="M63.66 25.6013C64.6634 26.5187 67.4103 29.4792 68.5274 30.5211C66.566 32.4825 64.1037 35.2497 62.2234 37.3073C61.7326 36.8624 57.825 32.8973 57.1975 32.2537C57.7676 31.6905 58.9421 30.4355 59.5225 29.8464L63.66 25.6013Z" fill="#D3FA99"/>
<path d="M75.7337 37.7249C76.329 38.2995 81.6733 43.7012 82.4789 44.5604C82.0181 45.0229 77.7657 49.5052 77.6289 49.6448C77.3634 49.3903 76.329 48.3075 75.9279 47.9149C74.2856 46.3084 72.1341 44.2184 70.5825 42.7048C72.0766 41.2302 74.2028 39.1615 75.7337 37.7249Z" fill="#D3FA99"/>
</svg>
